<svg xmlns="http://www.w3.org/2000/svg" width="180" height="80" viewBox="0 0 511 431">
  <g id="browser" transform="translate(0 -40)">
    <path id="Path_118" data-name="Path 118" d="M455.5,40H55.5A55.563,55.563,0,0,0,0,95.5v320A55.563,55.563,0,0,0,55.5,471h400A55.563,55.563,0,0,0,511,415.5V95.5A55.563,55.563,0,0,0,455.5,40ZM496,415.5A40.546,40.546,0,0,1,455.5,456H55.5A40.546,40.546,0,0,1,15,415.5V95.5A40.546,40.546,0,0,1,55.5,55h400A40.546,40.546,0,0,1,496,95.5Z" fill="#003d6b"/>
    <path id="Path_119" data-name="Path 119" d="M471.5,120H39.5a7.5,7.5,0,0,0,0,15h432a7.5,7.5,0,0,0,0-15Z" fill="#003d6b"/>
    <path id="Path_120" data-name="Path 120" d="M55.5,95a7.511,7.511,0,1,0-5.3-2.2A7.528,7.528,0,0,0,55.5,95Z" fill="#003d6b"/>
    <path id="Path_121" data-name="Path 121" d="M119.5,95a7.511,7.511,0,1,0-5.3-2.2A7.528,7.528,0,0,0,119.5,95Z" fill="#003d6b"/>
    <path id="Path_122" data-name="Path 122" d="M87.5,95a7.511,7.511,0,1,0-5.3-2.2A7.51,7.51,0,0,0,87.5,95Z" fill="#003d6b"/>
  </g>
</svg>
