<svg xmlns="http://www.w3.org/2000/svg" width="246.404" height="41.391" viewBox="0 0 246.404 41.391">
  <g id="Logo" transform="translate(-29.596 -31)">
    <g id="html" transform="translate(29.596 -25)">
      <path id="Path_1" data-name="Path 1" d="M48.912,56H4.1A4.1,4.1,0,0,0,0,60.1v33.2a4.1,4.1,0,0,0,4.1,4.1H48.912a4.1,4.1,0,0,0,4.1-4.1V60.1A4.1,4.1,0,0,0,48.912,56ZM4.1,57.556H48.912A2.544,2.544,0,0,1,51.454,60.1v2.542H1.556V60.1A2.544,2.544,0,0,1,4.1,57.556ZM48.912,95.835H4.1a2.544,2.544,0,0,1-2.542-2.542V64.2h49.9v29.1A2.544,2.544,0,0,1,48.912,95.835Z" transform="translate(0 0)"/>
      <path id="Path_5" data-name="Path 5" d="M6.527.035a.745.745,0,0,0-.935.482L.035,17.937a.744.744,0,0,0,1.419.45L7.011.968A.742.742,0,0,0,6.527.035Z" transform="translate(24.124 70.399) rotate(7)"/>
      <path id="Path_7" data-name="Path 7" d="M130.043,208.192a1.126,1.126,0,0,0-1.256,0l-8.527,6.277a.541.541,0,0,0,0,.925l8.527,6.277a1.125,1.125,0,0,0,1.256,0,.541.541,0,0,0,0-.925l-7.9-5.814,7.9-5.814A.541.541,0,0,0,130.043,208.192Z" transform="translate(-112.773 -134.808)"/>
      <path id="Path_8" data-name="Path 8" d="M120.26,208.192a1.126,1.126,0,0,1,1.256,0l8.527,6.277a.541.541,0,0,1,0,.925l-8.527,6.277a1.125,1.125,0,0,1-1.256,0,.541.541,0,0,1,0-.925l7.9-5.814-7.9-5.814A.541.541,0,0,1,120.26,208.192Z" transform="translate(-84.531 -134.808)"/>
    </g>
    <text id="SUPAWADEE" transform="translate(93 63)" font-size="30" font-family="SegoeUI-Semibold, Segoe UI" font-weight="600" letter-spacing="0.04em"><tspan x="0" y="0">SUPAWADEE</tspan></text>
  </g>
</svg>
