<svg id="_x35_0" enable-background="new 0 0 512 512" height="512" viewBox="0 0 512 512" width="512" xmlns="http://www.w3.org/2000/svg"><g><g><circle cx="256" cy="256" fill="#15be79" r="256"/></g><g><g><path d="m462.93 406.75c-46.56 63.8-121.91 105.25-206.93 105.25s-160.37-41.45-206.93-105.25z" fill="#d48d77"/><g fill="#eea47d"><path d="m380.58 406.75v72.95c-6.668 3.708-13.507 7.145-20.48 10.25v-83.2z"/><path d="m462.92 406.75c-4.978 6.838-10.303 13.422-15.94 19.73v-19.73z"/><path d="m200.532 406.75v42.24c0 5.66-4.59 10.25-10.25 10.25-5.65 0-10.24-4.59-10.24-10.25v-42.24z"/><path d="m305.71 437.94v69.23c-6.74 1.33-13.57 2.39-20.49 3.17v-72.4c0-5.65 4.59-10.24 10.24-10.24 5.656.004 10.249 4.576 10.25 10.24z"/><path d="m427.21 434.63v11.68c-6.53 5.9-13.37 11.45-20.49 16.63v-28.31c.528-13.576 19.964-13.571 20.49 0z"/><path d="m248.63 406.75v105.14c-6.849-.186-13.674-.653-20.48-1.39v-103.75z"/><path d="m163.68 460.62v34.23c-6.98-2.7-13.81-5.7-20.48-8.98v-25.25c.518-13.58 19.966-13.573 20.48 0z"/><path d="m95.83 407.27v48.44c-7.145-5.736-13.984-11.856-20.48-18.32v-30.12c0-.17 0-.35.01-.52h20.46c.01.18.01.35.01.52z"/></g></g></g><g><g><path d="m279.49 310.014h-46.98c-8.318 0-15.061 6.743-15.061 15.061v62.042h77.103v-62.042c0-8.318-6.744-15.061-15.062-15.061z" fill="#334353"/><path d="m344.333 387.117h-176.666c-9.021 0-16.334 7.313-16.334 16.334 0 9.021 7.313 16.334 16.334 16.334h176.667c9.021 0 16.334-7.313 16.334-16.334 0-9.021-7.314-16.334-16.335-16.334z" fill="#334353"/><path d="m310.465 387.117h-108.93c-5.562 0-10.072 4.509-10.072 10.072 0 5.562 4.509 10.072 10.072 10.072h108.929c5.562 0 10.072-4.509 10.072-10.072 0-5.563-4.509-10.072-10.071-10.072z" fill="#3e4e60"/><path d="m422.222 132.287v184.309c0 5.025-1.494 9.723-4.074 13.65-3.237 5.025-8.229 8.772-14.125 10.413-2.151.623-4.448.951-6.768.951h-282.509c-2.366 0-4.618-.328-6.768-.951-5.897-1.641-10.888-5.388-14.125-10.413-2.581-3.928-4.074-8.625-4.074-13.65v-184.309c0-2.32.328-4.618.939-6.768 2.332-8.342 8.885-14.929 17.261-17.261 2.151-.611 4.448-.939 6.768-.939h282.508c2.366 0 4.618.328 6.768.939 8.342 2.332 14.929 8.885 17.261 17.261.61 2.15.938 4.448.938 6.768z" fill="#3f5d77"/><path d="m126.189 132.287v184.309c0 5.025-1.494 9.723-4.086 13.65-3.237 5.025-8.229 8.772-14.125 10.413-5.897-1.641-10.888-5.388-14.125-10.413-2.581-3.928-4.074-8.625-4.074-13.65v-184.309c0-11.432 7.674-21.075 18.2-24.029 10.525 2.954 18.21 12.597 18.21 24.029z" fill="#3e4e60"/><path d="m422.222 132.287v184.309c0 5.025-1.494 9.723-4.074 13.65-3.237 5.025-8.229 8.772-14.125 10.413-5.897-1.641-10.888-5.388-14.125-10.413-2.592-3.928-4.086-8.625-4.086-13.65v-184.309c0-11.466 7.719-21.109 18.211-24.029 10.48 2.92 18.199 12.563 18.199 24.029z" fill="#3f6c8e"/><path d="m422.222 290.088v26.508c0 5.025-1.494 9.723-4.074 13.65-3.237 5.025-8.229 8.772-14.125 10.413-2.151.623-4.448.951-6.768.951h-282.509c-2.366 0-4.618-.328-6.768-.951-5.897-1.641-10.888-5.388-14.125-10.413-2.581-3.928-4.074-8.625-4.074-13.65v-26.508z" fill="#3e4e60"/><path d="m126.189 290.088v26.508c0 5.025-1.494 9.723-4.086 13.65-3.237 5.025-8.229 8.772-14.125 10.413-5.897-1.641-10.888-5.388-14.125-10.413-2.581-3.928-4.074-8.625-4.074-13.65v-26.508z" fill="#334353"/><path d="m422.222 290.088v26.508c0 5.025-1.494 9.723-4.074 13.65-3.237 5.025-8.229 8.772-14.125 10.413-5.897-1.641-10.888-5.388-14.125-10.413-2.592-3.928-4.086-8.625-4.086-13.65v-26.508z" fill="#3f5d77"/><path d="m275.884 315.849h-39.769c-5.123 0-9.277 4.153-9.277 9.277 0 5.123 4.153 9.277 9.277 9.277h39.769c5.123 0 9.277-4.153 9.277-9.277 0-5.123-4.153-9.277-9.277-9.277z" fill="#334353"/><path d="m330.134 125.524h-118.32c-5.027 0-9.103-4.075-9.103-9.103 0-5.027 4.075-9.103 9.103-9.103h118.32c5.027 0 9.103 4.075 9.103 9.103 0 5.028-4.076 9.103-9.103 9.103z" fill="#3f6c8e"/><g><path d="m388.25 309.115h-264.5c-8.708 0-15.767-7.059-15.767-15.767v-152.057c0-8.708 7.059-15.767 15.767-15.767h264.5c8.708 0 15.767 7.059 15.767 15.767v152.057c0 8.708-7.06 15.767-15.767 15.767z" fill="#c2aacf"/></g></g><g><g><g><path d="m313.713 98.809v169.567c0 10.023-8.114 18.137-18.13 18.137h-140.657c-10.015 0-18.137-8.114-18.137-18.137v-203.176c0-10.015 8.122-18.13 18.137-18.13h107.055z" fill="#fff"/><g fill="#9175a7"><path d="m283.219 153.398h-115.936c-3.164 0-5.729-2.565-5.729-5.729 0-3.164 2.565-5.729 5.729-5.729h115.936c3.164 0 5.729 2.565 5.729 5.729 0 3.164-2.565 5.729-5.729 5.729z"/><path d="m283.219 185.462h-115.936c-3.164 0-5.729-2.565-5.729-5.729 0-3.164 2.565-5.729 5.729-5.729h115.936c3.164 0 5.729 2.565 5.729 5.729 0 3.164-2.565 5.729-5.729 5.729z"/><path d="m283.219 217.526h-115.936c-3.164 0-5.729-2.565-5.729-5.729 0-3.164 2.565-5.729 5.729-5.729h115.936c3.164 0 5.729 2.565 5.729 5.729 0 3.164-2.565 5.729-5.729 5.729z"/><path d="m283.219 249.59h-115.936c-3.164 0-5.729-2.565-5.729-5.729 0-3.164 2.565-5.729 5.729-5.729h115.936c3.164 0 5.729 2.565 5.729 5.729 0 3.164-2.565 5.729-5.729 5.729z"/><path d="m283.219 121.334h-115.936c-3.164 0-5.729-2.565-5.729-5.729 0-3.164 2.565-5.729 5.729-5.729h115.936c3.164 0 5.729 2.565 5.729 5.729 0 3.164-2.565 5.729-5.729 5.729z"/><path d="m283.219 89.27h-115.936c-3.164 0-5.729-2.565-5.729-5.729 0-3.164 2.565-5.729 5.729-5.729h115.936c3.164 0 5.729 2.565 5.729 5.729 0 3.164-2.565 5.729-5.729 5.729z"/></g><path d="m313.713 98.809h-33.601c-10.015 0-18.13-8.114-18.13-18.13v-33.609z" fill="#ebd9ea"/></g></g><g id="Pencil_6_"><g><path d="m336.132 93.619h35.651v135.903h-35.651z" fill="#f39e22"/><path d="m361.415 219.154v-115.167c0-2.865 1.159-5.449 3.039-7.329s4.464-3.039 7.329-3.039v135.903c-5.722 0-10.368-4.637-10.368-10.368z" fill="#c68132"/><path d="m336.132 229.522v-135.903c5.731 0 10.376 4.646 10.376 10.368v115.167c.001 5.731-4.645 10.368-10.376 10.368z" fill="#f9c744"/></g><g><path d="m326.704 85.363c0-4.555 3.693-8.256 8.248-8.256h38.011c2.277 0 4.339.927 5.83 2.418.754.754 1.366 1.656 1.78 2.65.414.985.638 2.062.638 3.188 0 4.563-3.693 8.256-8.248 8.256h-38.011c-2.277 0-4.339-.927-5.83-2.418-1.499-1.491-2.418-3.561-2.418-5.838z" fill="#ebd9ea"/><path d="m326.704 85.363h23.999c2.277 0 4.339.919 5.838 2.418 1.491 1.491 2.418 3.553 2.418 5.838h-24.007c-2.277 0-4.339-.927-5.83-2.418-1.499-1.491-2.418-3.561-2.418-5.838z" fill="#fff"/><path d="m336.774 77.106h36.189c2.277 0 4.339.927 5.83 2.418.754.754 1.366 1.656 1.78 2.65h-36.189c-2.277 0-4.339-.927-5.83-2.418-.753-.753-1.357-1.648-1.78-2.65z" fill="#c1b7d3"/></g><g><path d="m336.137 77.106v-12.214c0-5.416 2.41-10.26 6.219-13.523.331-.298.671-.571 1.027-.828 2.965-2.178 6.617-3.47 10.575-3.47 4.157 0 7.983 1.424 11.014 3.809.472.373.936.77 1.366 1.201.075.058.149.132.224.207 3.23 3.221 5.225 7.677 5.225 12.604v12.215h-35.65z" fill="#ee6781"/><path d="m336.137 77.106v-12.214c0-5.416 2.41-10.26 6.219-13.523.34.29.671.596.994.919 3.221 3.221 5.217 7.677 5.217 12.604v12.215h-12.43z" fill="#f0a6b3"/><path d="m360.897 77.106v-12.214c0-5.035 2.079-9.581 5.441-12.811.075.058.149.132.224.207 3.23 3.221 5.225 7.677 5.225 12.604v12.215h-10.89z" fill="#d65171"/></g><path d="m336.137 229.522h35.65l-14.906 37.191h-5.847l-12.074-30.144z" fill="#f5b890"/><path d="m338.96 236.569h18.045c3.064 0 5.151 3.097 4.016 5.938l-9.697 24.206h-.29z" fill="#fbd9a3"/><g><path d="m350.173 282.729v-17.581c0-2.087 1.698-3.776 3.785-3.776 1.043 0 1.987.422 2.675 1.101.687.687 1.11 1.631 1.11 2.675v17.581c0 1.888-1.383 3.445-3.18 3.735-.199.033-.397.05-.605.05-2.087-.001-3.785-1.69-3.785-3.785z" fill="#2e3140"/><path d="m350.173 282.729v-10.757c.199-.033.397-.05.605-.05 1.043 0 1.996.422 2.675 1.11.687.687 1.11 1.631 1.11 2.675v10.757c-.199.033-.397.05-.605.05-2.087-.001-3.785-1.69-3.785-3.785z" fill="#334353"/></g></g></g></g></g></svg>