<svg id="_x35_0" enable-background="new 0 0 512 512" height="512" viewBox="0 0 512 512" width="512" xmlns="http://www.w3.org/2000/svg"><g><g><circle cx="256" cy="256" fill="#efb732" r="256"/></g><g><g><path d="m462.93 406.75c-46.56 63.8-121.91 105.25-206.93 105.25s-160.37-41.45-206.93-105.25z" fill="#d48d77"/><g fill="#eea47d"><path d="m380.58 406.75v72.95c-6.668 3.708-13.507 7.145-20.48 10.25v-83.2z"/><path d="m462.92 406.75c-4.978 6.838-10.303 13.422-15.94 19.73v-19.73z"/><path d="m200.532 406.75v42.24c0 5.66-4.59 10.25-10.25 10.25-5.65 0-10.24-4.59-10.24-10.25v-42.24z"/><path d="m305.71 437.94v69.23c-6.74 1.33-13.57 2.39-20.49 3.17v-72.4c0-5.65 4.59-10.24 10.24-10.24 5.656.004 10.249 4.576 10.25 10.24z"/><path d="m427.21 434.63v11.68c-6.53 5.9-13.37 11.45-20.49 16.63v-28.31c.528-13.576 19.964-13.571 20.49 0z"/><path d="m248.63 406.75v105.14c-6.849-.186-13.674-.653-20.48-1.39v-103.75z"/><path d="m163.68 460.62v34.23c-6.98-2.7-13.81-5.7-20.48-8.98v-25.25c.518-13.58 19.966-13.573 20.48 0z"/><path d="m95.83 407.27v48.44c-7.145-5.736-13.984-11.856-20.48-18.32v-30.12c0-.17 0-.35.01-.52h20.46c.01.18.01.35.01.52z"/></g></g></g><g><g><path d="m224.848 321.387h-42.113c-7.456 0-13.501 6.044-13.501 13.501v55.614h69.115v-55.614c-.001-7.457-6.045-13.501-13.501-13.501z" fill="#334353"/><path d="m282.972 390.501h-158.363c-8.087 0-14.642 6.555-14.642 14.642 0 8.087 6.555 14.642 14.642 14.642h158.363c8.087 0 14.642-6.555 14.642-14.642 0-8.086-6.555-14.642-14.642-14.642z" fill="#334353"/><path d="m252.613 390.501h-97.644c-4.986 0-9.028 4.042-9.028 9.028 0 4.986 4.042 9.028 9.028 9.028h97.644c4.986 0 9.028-4.042 9.028-9.028 0-4.986-4.042-9.028-9.028-9.028z" fill="#3e4e60"/><path d="m352.792 162.073v165.214c0 4.505-1.339 8.715-3.652 12.236-2.902 4.505-7.376 7.863-12.662 9.334-1.928.558-3.987.852-6.067.852h-253.24c-2.121 0-4.139-.294-6.067-.852-5.286-1.471-9.76-4.829-12.662-9.334-2.313-3.521-3.652-7.731-3.652-12.236v-165.214c0-2.08.294-4.139.842-6.067 2.09-7.477 7.965-13.382 15.472-15.472 1.928-.548 3.987-.842 6.067-.842h253.239c2.121 0 4.139.294 6.067.842 7.477 2.09 13.382 7.964 15.472 15.472.549 1.928.843 3.987.843 6.067z" fill="#3f5d77"/><path d="m87.429 162.073v165.214c0 4.505-1.339 8.715-3.663 12.236-2.902 4.505-7.376 7.863-12.662 9.334-5.286-1.471-9.76-4.829-12.662-9.334-2.313-3.521-3.652-7.731-3.652-12.236v-165.214c0-10.247 6.879-18.891 16.314-21.539 9.436 2.648 16.325 11.292 16.325 21.539z" fill="#3e4e60"/><path d="m352.792 162.073v165.214c0 4.505-1.339 8.715-3.652 12.236-2.902 4.505-7.376 7.863-12.662 9.334-5.286-1.471-9.76-4.829-12.662-9.334-2.323-3.521-3.663-7.731-3.663-12.236v-165.214c0-10.278 6.919-18.922 16.325-21.539 9.394 2.617 16.314 11.262 16.314 21.539z" fill="#3f6c8e"/><path d="m352.792 303.526v23.761c0 4.505-1.339 8.715-3.652 12.236-2.902 4.505-7.376 7.863-12.662 9.334-1.928.558-3.987.852-6.067.852h-253.24c-2.121 0-4.139-.294-6.067-.852-5.286-1.471-9.76-4.829-12.662-9.334-2.313-3.521-3.652-7.731-3.652-12.236v-23.761z" fill="#3e4e60"/><path d="m87.429 303.526v23.761c0 4.505-1.339 8.715-3.663 12.236-2.902 4.505-7.376 7.863-12.662 9.334-5.286-1.471-9.76-4.829-12.662-9.334-2.313-3.521-3.652-7.731-3.652-12.236v-23.761z" fill="#334353"/><path d="m352.792 303.526v23.761c0 4.505-1.339 8.715-3.652 12.236-2.902 4.505-7.376 7.863-12.662 9.334-5.286-1.471-9.76-4.829-12.662-9.334-2.323-3.521-3.663-7.731-3.663-12.236v-23.761z" fill="#3f5d77"/><path d="m221.615 326.618h-35.648c-4.593 0-8.316 3.723-8.316 8.316 0 4.593 3.723 8.316 8.316 8.316h35.648c4.593 0 8.316-3.723 8.316-8.316 0-4.593-3.723-8.316-8.316-8.316z" fill="#334353"/><path d="m270.244 156.011h-106.061c-4.506 0-8.16-3.653-8.16-8.16 0-4.506 3.653-8.16 8.16-8.16h106.061c4.506 0 8.16 3.653 8.16 8.16 0 4.507-3.654 8.16-8.16 8.16z" fill="#3f6c8e"/><g><path d="m322.339 320.581h-237.096c-7.806 0-14.133-6.328-14.133-14.133v-136.303c0-7.806 6.328-14.133 14.133-14.133h237.096c7.806 0 14.133 6.328 14.133 14.133v136.303c0 7.805-6.328 14.133-14.133 14.133z" fill="#cde6f6"/></g></g><g><path d="m71.11 201.045c5.059-1.855 10.403-4.577 17.204-8.127 17.874-9.332 40.129-20.938 75.007-19.646 35.209 1.312 76.982 15.701 131.461 45.283l-31.494 58.001c-43.971-23.876-78.432-36.436-102.425-37.33-17.387-.649-27.72 4.74-42.005 12.198-12.622 6.59-27.705 14.464-47.748 17.389z" fill="#83d5ef"/></g><g><g><g><path d="m344.357 225.862c1.118.646 2.108 1.429 2.959 2.316 1.603 1.654 2.724 3.679 3.306 5.852.892 3.327.512 6.995-1.345 10.212l-38.281 66.304c-3.715 6.434-11.941 8.639-18.376 4.924-3.217-1.857-5.38-4.844-6.271-8.172-.486-1.814-.594-3.721-.292-5.603.248-1.581.786-3.136 1.634-4.604l38.281-66.304c3.716-6.433 11.951-8.639 18.385-4.925z" fill="#a26d5a"/><path d="m344.357 225.862c1.118.646 2.108 1.429 2.959 2.316-.248 1.581-.786 3.136-1.634 4.604l-38.284 66.31c-3.715 6.434-11.941 8.639-18.376 4.924-1.118-.646-2.113-1.432-2.965-2.319.248-1.581.786-3.136 1.634-4.604l38.281-66.304c3.716-6.435 11.951-8.641 18.385-4.927z" fill="#c17e62"/><path d="m332.609 242.865-20.641 35.751c-1.627 2.818-5.231 3.784-8.049 2.157-2.818-1.627-3.784-5.231-2.157-8.049l20.641-35.751c1.627-2.818 5.231-3.784 8.049-2.157 2.819 1.627 3.784 5.231 2.157 8.049z" fill="#d48d77"/><path d="m407.478 299.964-63.907-31.038-6.674-3.238-13.516 23.411 64.975 43.986c9.217 6.24 21.789 3.351 27.352-6.285l.003-.005c3.121-5.406 3.299-11.663 1.079-16.973-1.728-4.157-4.919-7.724-9.312-9.858zm-13.975 24.425c-1.558-.9-2.753-2.197-3.513-3.696-1.353-2.626-1.38-5.871.208-8.622 2.491-4.314 8.008-5.793 12.323-3.302 4.314 2.491 5.793 8.009 3.302 12.323-.71 1.23-1.669 2.23-2.77 2.973-2.768 1.858-6.465 2.105-9.55.324z" fill="#a26d5a"/><path d="m416.79 309.821c-.261 2.117-.947 4.223-2.085 6.195-2.592 4.489-6.943 7.277-11.651 8.05 1.1-.743 2.06-1.744 2.77-2.973 2.491-4.314 1.012-9.832-3.302-12.323s-9.832-1.012-12.323 3.302c-1.588 2.751-1.561 5.996-.208 8.622l-55.462-36.106 9.042-15.662 63.907 31.038c4.393 2.134 7.584 5.701 9.312 9.857z" fill="#c17e62"/><g><path d="m387.676 300.916c-1.217 2.108-3.889 2.909-6.076 1.782l-29.921-15.417c-2.253-1.161-3.139-3.929-1.978-6.182 1.161-2.259 3.929-3.139 6.182-1.978l29.921 15.417c2.253 1.161 3.139 3.929 1.978 6.182-.034.067-.069.132-.106.196z" fill="#d48d77"/></g></g><g><path d="m270.577 179.979c5.655 3.265 8.414 9.614 7.385 15.691-.293 1.732-.892 3.442-1.822 5.054l-39.401 68.244c-.101.175-.204.341-.316.51l11.443 6.607c3.519 2.032 4.724 6.53 2.693 10.049l-4.663 8.077c-2.488 4.309-8.444 4.955-11.801 1.285l-1.883-2.063-4.95-5.416-13.986-15.311c-.224-.249-.424-.514-.614-.785-4.593-4.75-5.698-12.138-2.231-18.143l39.401-68.244c2.096-3.631 5.467-6.066 9.22-7.072 3.752-1.006 7.894-.579 11.525 1.517z" fill="#22bce0"/><path d="m271.824 187.611c3.164 1.827 5.282 4.781 6.138 8.059-.293 1.732-.892 3.442-1.822 5.054l-39.401 68.244c-.101.175-.204.341-.316.51l11.443 6.607c3.519 2.032 4.724 6.53 2.693 10.049l-.037.064c-2.145 3.715-7.287 4.273-10.178 1.105l-17.972-19.669c-.193-.217-.369-.439-.53-.673-3.962-4.104-4.918-10.479-1.925-15.662l34-58.89c1.812-3.138 4.721-5.239 7.959-6.111 3.24-.864 6.816-.496 9.948 1.313z" fill="#22a8b9"/><g fill="#4fcae8"><path d="m254.219 206.05-15.062 26.088c-1.941 3.362-6.24 4.514-9.603 2.573-3.362-1.941-4.514-6.24-2.573-9.603l15.062-26.088c1.941-3.362 6.24-4.514 9.603-2.573 3.362 1.942 4.514 6.241 2.573 9.603z"/><path d="m237.376 280.961c3.254 1.879 4.37 6.042 2.491 9.297-1.576 2.73-4.756 3.953-7.657 3.176l-4.95-5.416c-.263-1.516-.018-3.127.814-4.568 1.879-3.255 6.043-4.371 9.302-2.489z"/></g></g><g><path d="m283.064 200.517 33.484 23.621 9.425 6.65-38.281 66.304-47.67-22.024c-7.286-3.366-10.108-12.26-6.097-19.208l29.456-51.019c4.012-6.948 13.126-8.951 19.683-4.324z" fill="#334353"/><path d="m283.064 200.517 33.484 23.621c-.087.176-.18.348-.281.523l-3.938 6.821-25.064-14.471c-.885-.511-1.893-.613-2.81-.372-.92.246-1.742.839-2.253 1.724-1.025 1.776-.413 4.044 1.358 5.066l25.064 14.471-5.343 9.254-40.154-23.183c-.885-.511-1.899-.616-2.813-.366-.92.246-1.742.839-2.253 1.724-1.025 1.776-.413 4.044 1.358 5.066l40.154 23.183-5.343 9.254-35.267-20.361c-.885-.511-1.899-.616-2.815-.375-.914.249-1.737.842-2.251 1.732-1.022 1.77-.418 4.041 1.358 5.066l35.267 20.361c-2.156 3.723-5.805 6.076-9.784 6.69l-20.623-11.906c-.885-.511-1.893-.613-2.81-.372-.92.246-1.742.839-2.256 1.729-.19.329-.326.674-.402 1.026l-4.407-2.036c-6.227-2.874-10.831-7.765-13.436-13.51l26.579-46.037c4.01-6.946 13.124-8.949 19.681-4.322z" fill="#3e4e60"/><g fill="#334353"><path d="m304.161 268.568-3.708 6.422-45.202-26.097c-1.773-1.024-2.381-3.291-1.357-5.065 1.024-1.773 3.291-2.381 5.065-1.357z"/><path d="m313.212 252.892-3.708 6.422-50.085-28.917c-1.773-1.024-2.381-3.291-1.357-5.065 1.024-1.773 3.291-2.381 5.065-1.357z"/><path d="m322.263 237.215-3.708 6.422-34.995-20.204c-1.773-1.024-2.381-3.291-1.357-5.065 1.024-1.773 3.291-2.381 5.065-1.357z"/><path d="m295.11 284.244-3.708 6.422-34.995-20.204c-1.773-1.024-2.381-3.291-1.357-5.065 1.024-1.773 3.291-2.381 5.065-1.357z"/></g><g fill="#2e3140"><path d="m294.229 262.833 9.932 5.734-3.709 6.424-9.932-5.734c.003-.005.003-.005.006-.011z"/><path d="m302.684 247.5h7.417v11.469h-7.417z" transform="matrix(.5 -.866 .866 .5 -66.111 391.961)"/><path d="m311.737 231.825h7.411v11.469h-7.411z" transform="matrix(.5 -.866 .866 .5 -48.011 391.961)"/><path d="m280.736 275.946 14.374 8.299-3.706 6.418-34.997-20.205c-1.442-.832-2.115-2.493-1.762-4.035l18.224 8.423c2.546 1.173 5.27 1.509 7.867 1.1z"/></g></g></g></g></g><g><path d="m479.355 245.453h-10.57c-7.352 0-13.312-5.96-13.312-13.312v-10.57c0-3.193-2.588-5.781-5.781-5.781-3.193 0-5.781 2.588-5.781 5.781v10.57c0 7.352-5.96 13.312-13.312 13.312h-10.57c-3.193 0-5.781 2.588-5.781 5.781 0 3.193 2.588 5.781 5.781 5.781h10.57c7.352 0 13.312 5.96 13.312 13.312v10.57c0 3.193 2.588 5.781 5.781 5.781 3.193 0 5.781-2.588 5.781-5.781v-10.57c0-7.352 5.96-13.312 13.312-13.312h10.57c3.193 0 5.781-2.588 5.781-5.781 0-3.192-2.588-5.781-5.781-5.781z" fill="#fff"/><g fill="#fbd9a3"><path d="m427.577 171.498h-8.125c-5.652 0-10.233-4.582-10.233-10.233v-8.125c0-2.454-1.99-4.444-4.444-4.444-2.454 0-4.444 1.99-4.444 4.444v8.125c0 5.652-4.582 10.233-10.233 10.233h-8.125c-2.454 0-4.444 1.99-4.444 4.444 0 2.454 1.99 4.444 4.444 4.444h8.125c5.652 0 10.233 4.582 10.233 10.233v8.125c0 2.454 1.99 4.444 4.444 4.444 2.454 0 4.444-1.99 4.444-4.444v-8.125c0-5.652 4.582-10.233 10.233-10.233h8.125c2.454 0 4.444-1.99 4.444-4.444 0-2.454-1.99-4.444-4.444-4.444z"/><path d="m190.245 77.123h-10.57c-7.352 0-13.312-5.96-13.312-13.312v-10.57c0-3.193-2.588-5.781-5.781-5.781-3.193 0-5.781 2.588-5.781 5.781v10.57c0 7.352-5.96 13.312-13.312 13.312h-10.57c-3.193 0-5.781 2.588-5.781 5.781 0 3.193 2.588 5.781 5.781 5.781h10.57c7.352 0 13.312 5.96 13.312 13.312v10.57c0 3.193 2.588 5.781 5.781 5.781 3.193 0 5.781-2.588 5.781-5.781v-10.57c0-7.352 5.96-13.312 13.312-13.312h10.57c3.193 0 5.781-2.588 5.781-5.781 0-3.193-2.589-5.781-5.781-5.781z"/></g></g></g></svg>