<svg xmlns="http://www.w3.org/2000/svg" width="511.963" height="511.998" viewBox="0 0 511.963 511.998">
  <path id="layers" d="M501.426,238.109,419.2,197l82.223-41.113a20.016,20.016,0,0,0,0-35.777l-236-118a20.022,20.022,0,0,0-17.891,0l-236,118a20.016,20.016,0,0,0,0,35.777L93.758,197,11.535,238.109a20.016,20.016,0,0,0,0,35.777L93.758,315,11.535,356.109a20.016,20.016,0,0,0,0,35.777l236,118a20.01,20.01,0,0,0,17.891,0l236-118a20.016,20.016,0,0,0,0-35.777L419.2,315l82.223-41.113a20.016,20.016,0,0,0,0-35.777ZM256.481,42.359,447.758,138,256.481,233.636,65.2,138ZM447.758,374,256.481,469.637,65.2,374l73.277-36.641,109.055,54.527a20.01,20.01,0,0,0,17.891,0l109.055-54.527ZM256.481,351.637,65.2,256l73.277-36.641,109.055,54.527a20.01,20.01,0,0,0,17.891,0l109.055-54.527L447.759,256Zm0,0" transform="translate(-0.499 0)" fill="#fff"/>
</svg>
